<?xml version="1.0" encoding="utf-8"?>
<!-- Generator: Adobe Illustrator 24.0.1, SVG Export Plug-In . SVG Version: 6.00 Build 0)  -->
<svg version="1.1" id="Layer_1" xmlns="http://www.w3.org/2000/svg" xmlns:xlink="http://www.w3.org/1999/xlink" x="0px" y="0px"
	 viewBox="0 0 1597.8 496" style="enable-background:new 0 0 1597.8 496;" xml:space="preserve">
<style type="text/css">
	.st0{fill:#78C0FF;}
	.st1{fill:#1B1F3B;}
</style>
<g>
	<path class="st0" d="M192.3,451.2c-13.6,6.8-27.2,13.1-43.9,21.3c-0.9-13.6-1.4-21.7-1.4-26.3c-17.7,0-33.5,0-49.4,0
		c-1.8-17.2-3.2-30.8-5-45.8c-10,2.3-18.1,4.1-26.3,5.9c-11.3-19,14.9-48.5-21.3-61.2c2.7-18.6,5.4-37.6,8.6-57.1
		c-0.9,0-1.8,0-2.7,0c0-12.2,0-24.5,0-39c-8.6-5.9-19.9-13.1-33.5-22.2c5.4-2.7,8.6-4.1,12.2-5.9c-6.8-13.1-13.1-26.3-22.2-43.9
		c11.3-8.2,24.5-17.2,37.1-26.3c-1.4-2.7-2.7-5.4-4.5-8.2c-9.5-2.3-18.6-5-29-7.2c0-0.5-1.4-3.2-0.9-4.1
		c15.5-28.4,18.3-68.2,64-69.1c5.4,0,10.9-8.2,17.7-13.1c-2.3-4.5-5.4-9.5-8.2-14.5c1.8-1.8,2.7-3.2,3.6-3.2
		c13.6,0.5,27.6-0.5,40.3,2.7c14.5,3.6,23.1,1.8,28.1-13.6c1.8-5.4,7.2-9.5,10.4-13.1c12.7,8.2,24,15.4,38.5,24.9
		c3.6-13.1,5.9-21.7,8.6-32.2c10.9,8.2,20.4,15.4,28.1,21.3c13.1-2.7,24-4.5,39.9-7.7c5,12.2,11.3,28.5,17.7,46.2
		c2.7-1.4,8.2-3.6,15.4-6.8c-1.8,24,8.6,48-11.8,70.2c8.6,1.4,14.5,2.3,25.4,3.6c-10,18.6-19,35.3-27.2,50.7
		c1.8,8.6,4.1,16.8,5.4,25.4c0.5,2.3-0.5,5.4-1.8,7.7C278,254.1,287,298.1,302.4,342c0.5,1.8,0,4.1,0,7.2c-9.5-1.8-18.6-3.2-28.1-5
		c-5,31.3,14,53.5,31.3,81.1c-17.7,0.9-32.2,1.8-48,2.7c5.4,6.8,10.4,13.1,18.1,23.1c-18.1,0-32.6,0-49.4,0
		c-0.5,2.7-0.9,7.7-1.8,16.3C211.8,461.2,201.4,455.7,192.3,451.2z M129.8,355.2c-12.7,28.5-9.1,40.8,17.2,48c18.6,5,39,6.3,58,5
		c23.6-1.4,37.6-17.2,39-40.3c1.4-28.5-1.4-57.1-0.9-85.6c0.5-27.6,2.7-55.3,4.5-83.4c1.4-16.8,5-34,4.5-50.7
		c-0.5-23.6-10-27.6-38.1-26.3c-24,0.9-20.4,15.4-19,31.3c2.3,20.8,4.1,42.1,4.5,63.4c0,12.7-1.8,26.3-6.3,38.1
		c-3.2,7.7-12.7,17.7-19,17.7c-10.9-0.5-24-5.4-31.7-12.7c-6.3-5.9-7.7-18.6-8.2-28.5c-1.4-19,0.5-38.1-0.5-57.5
		c-0.9-21.7-8.6-25.4-26.7-14c-5.9,3.6-11.3,8.2-17.7,9.5c-17.7,4.1-23.1,16.3-17.7,30.8c11.3,31.3,21.7,63.4,38.1,92
		c21.3,36.2,57.1,39.9,90.6,14c1.4-0.9,3.6-1.4,5.4-2.3C216.8,362.9,199.1,375.1,129.8,355.2z M234.9,108.3
		c22.2-0.9,38.1-10.4,38.5-25.8c0.9-19.9-14.9-28.1-29.9-30.4c-17.7-2.7-36.2-1.4-53.9,2.3c-7.2,1.4-17.2,14.5-16.8,21.7
		c0.9,8.6,9.5,19.9,17.7,23.6C204.1,105.1,220,105.6,234.9,108.3z M146.6,118.2c23.6-29.9,24.9-36.2,10-45.8
		c-11.8-8.2-35.3-5.9-38.5,5.4C112.2,101,135.3,104.7,146.6,118.2z M93.1,82.9C86.3,94.2,80.5,99.7,80,105.1
		c-0.9,14,5.9,26.7,20.8,27.2c6.3,0.5,19.5-13.6,19-14.9C113.5,106.5,104.9,97.4,93.1,82.9z M56,116.9c-5.4,15.9-3.6,29.4,11.8,38.1
		c2.3,1.4,12.2-5.4,13.6-10C85.9,130.5,75.5,119.1,56,116.9z"/>
	<g>
		<path class="st1" d="M486.7,317H386.6c0.1,11.6,2.5,21.9,7,30.7c4.6,8.9,10.6,15.6,18.2,20.1s15.9,6.7,25,6.7
			c6.1,0,11.7-0.7,16.8-2.2c5.1-1.4,10-3.7,14.7-6.7c4.7-3.1,9.1-6.3,13.1-9.8s9.2-8.2,15.6-14.2c2.6-2.2,6.4-3.4,11.2-3.4
			c5.2,0,9.5,1.4,12.7,4.3c3.2,2.9,4.9,6.9,4.9,12.2c0,4.6-1.8,10-5.4,16.2c-3.6,6.2-9.1,12.1-16.4,17.8s-16.5,10.4-27.6,14.2
			s-23.8,5.6-38.1,5.6c-32.9,0-58.4-9.4-76.7-28.1c-18.2-18.7-27.4-44.2-27.4-76.3c0-15.1,2.2-29.1,6.7-42.1
			c4.5-12.9,11.1-24,19.7-33.3c8.6-9.2,19.2-16.3,31.9-21.3c12.6-4.9,26.6-7.4,42-7.4c20,0,37.1,4.2,51.5,12.7
			c14.3,8.4,25,19.3,32.1,32.7s10.7,27,10.7,40.9c0,12.9-3.7,21.2-11.1,25C510.4,315.1,500,317,486.7,317z M386.6,287.9h92.8
			c-1.2-17.5-6-30.6-14.2-39.3s-19-13-32.3-13c-12.7,0-23.2,4.4-31.4,13.2C393.3,257.7,388.3,270.7,386.6,287.9z"/>
		<path class="st1" d="M574.8,204.9h5.6v-30.7c0-8.2,0.2-14.7,0.7-19.4c0.4-4.7,1.7-8.7,3.7-12.1c2-3.5,4.9-6.3,8.6-8.5
			s7.9-3.3,12.6-3.3c6.5,0,12.4,2.4,17.6,7.3c3.5,3.2,5.7,7.2,6.7,11.9c0.9,4.7,1.4,11.3,1.4,20V205h18.7c7.2,0,12.8,1.7,16.6,5.2
			c3.8,3.4,5.7,7.8,5.7,13.2c0,6.9-2.7,11.7-8.2,14.4c-5.4,2.7-13.2,4.1-23.3,4.1h-9.6V336c0,8,0.3,14.2,0.8,18.5
			c0.6,4.3,2.1,7.8,4.5,10.5s6.4,4,11.9,4c3,0,7.1-0.5,12.2-1.6c5.1-1.1,9.1-1.6,12-1.6c4.1,0,7.8,1.7,11.2,5s5,7.4,5,12.3
			c0,8.2-4.5,14.6-13.5,18.9c-9,4.4-21.9,6.6-38.8,6.6c-16,0-28.1-2.7-36.4-8.1c-8.2-5.4-13.7-12.8-16.2-22.3
			c-2.6-9.5-3.8-22.2-3.8-38V242h-6.7c-7.4,0-13-1.7-16.9-5.2s-5.8-7.9-5.8-13.3c0-5.4,2-9.8,6.1-13.2S567,204.9,574.8,204.9z"/>
		<path class="st1" d="M733.7,176.6c-7.1,0-13.2-2.2-18.3-6.6c-5.1-4.4-7.6-10.6-7.6-18.6c0-7.2,2.6-13.2,7.8-17.9s11.2-7,18.1-7
			c6.6,0,12.5,2.1,17.6,6.4c5.1,4.2,7.7,10.4,7.7,18.6c0,7.9-2.5,14-7.5,18.5C746.5,174.4,740.6,176.6,733.7,176.6z M759,229.4
			v147.9c0,10.2-2.4,18-7.3,23.2s-11.1,7.9-18.6,7.9s-13.6-2.7-18.3-8.1s-7-13.1-7-23.1V230.9c0-10.1,2.3-17.7,7-22.9
			c4.7-5.1,10.8-7.7,18.3-7.7s13.7,2.6,18.6,7.7S759,220.3,759,229.4z"/>
	</g>
</g>
<g>
	<path class="st0" d="M1013.3,360.3l-43.8-162.6l-44.4,162.6c-3.5,12.3-6.2,21.2-8.2,26.5c-2,5.4-5.6,10.2-10.6,14.4
		c-5.1,4.3-11.8,6.4-20.2,6.4c-6.8,0-12.4-1.3-16.7-3.8c-4.4-2.5-7.9-6.1-10.6-10.7c-2.7-4.6-4.9-10.1-6.7-16.5
		c-1.7-6.4-3.3-12.2-4.6-17.7l-45.1-182.6c-2.7-10.6-4.1-18.7-4.1-24.2c0-7,2.5-12.9,7.4-17.8s11-7.2,18.3-7.2
		c10,0,16.7,3.2,20.2,9.6c3.5,6.4,6.5,15.7,9.1,27.9l35.5,158.3L928.4,175c3-11.3,5.6-20,8-25.9c2.3-5.9,6.2-11,11.5-15.4
		c5.3-4.3,12.5-6.5,21.6-6.5c9.2,0,16.4,2.3,21.6,6.8c5.1,4.5,8.7,9.4,10.6,14.7c2,5.3,4.6,14.1,8,26.3l40.1,148.2l35.5-158.3
		c1.7-8.3,3.4-14.7,4.9-19.4c1.5-4.7,4.2-8.9,8-12.6c3.8-3.7,9.2-5.5,16.4-5.5s13.2,2.4,18.2,7.1c5,4.7,7.5,10.7,7.5,17.9
		c0,5.1-1.4,13.1-4.1,24.2L1091,359c-3.1,12.3-5.6,21.4-7.7,27.1s-5.5,10.8-10.4,15.1c-4.9,4.3-11.7,6.5-20.6,6.5
		c-8.4,0-15.1-2.1-20.2-6.3c-5.1-4.2-8.6-8.9-10.5-14.2C1019.7,382,1016.9,373,1013.3,360.3z"/>
	<path class="st0" d="M1304.6,317.4h-98.8c0.1,11.5,2.4,21.6,6.9,30.3c4.5,8.8,10.5,15.4,17.9,19.8c7.5,4.4,15.7,6.7,24.7,6.7
		c6,0,11.6-0.7,16.6-2.1s9.8-3.6,14.5-6.7c4.7-3,9-6.3,12.9-9.7c3.9-3.5,9.1-8.1,15.4-14.1c2.6-2.2,6.3-3.3,11.1-3.3
		c5.2,0,9.4,1.4,12.6,4.3s4.8,6.8,4.8,12c0,4.6-1.8,9.9-5.4,16s-9,12-16.2,17.6c-7.2,5.6-16.3,10.3-27.2,14
		c-10.9,3.7-23.5,5.5-37.6,5.5c-32.4,0-57.7-9.2-75.7-27.7s-27-43.6-27-75.3c0-14.9,2.2-28.8,6.7-41.5c4.4-12.8,10.9-23.7,19.4-32.8
		c8.5-9.1,19-16.1,31.4-21c12.5-4.9,26.3-7.3,41.4-7.3c19.7,0,36.7,4.2,50.8,12.5s24.7,19.1,31.7,32.3c7,13.2,10.5,26.6,10.5,40.3
		c0,12.7-3.6,20.9-10.9,24.7C1328.1,315.5,1317.8,317.4,1304.6,317.4z M1205.9,288.7h91.6c-1.2-17.3-5.9-30.2-14-38.8
		c-8.1-8.6-18.7-12.9-31.9-12.9c-12.6,0-22.9,4.3-31,13C1212.5,258.9,1207.6,271.7,1205.9,288.7z"/>
	<path class="st0" d="M1430.4,156.1v77.1c9.5-9.9,19.2-17.4,29-22.7c9.9-5.2,22.1-7.9,36.6-7.9c16.8,0,31.5,4,44.1,11.9
		c12.6,8,22.4,19.5,29.4,34.6c7,15.1,10.5,33,10.5,53.7c0,15.3-1.9,29.3-5.8,42.1c-3.9,12.8-9.5,23.8-16.9,33.2
		c-7.4,9.4-16.4,16.6-26.9,21.7c-10.5,5.1-22.2,7.7-34.9,7.7c-7.8,0-15.1-0.9-21.9-2.8c-6.8-1.8-12.7-4.3-17.5-7.3
		c-4.8-3-8.9-6.1-12.3-9.3c-3.4-3.2-7.9-8-13.4-14.4v5c0,9.5-2.3,16.7-6.8,21.6c-4.6,4.9-10.4,7.3-17.4,7.3
		c-7.2,0-12.9-2.4-17.1-7.3c-4.3-4.9-6.4-12.1-6.4-21.6V158.3c0-10.2,2.1-18,6.2-23.2c4.1-5.2,9.9-7.9,17.3-7.9
		c7.8,0,13.8,2.5,17.9,7.5C1428.3,139.7,1430.4,146.8,1430.4,156.1z M1432.8,306.1c0,20.1,4.6,35.5,13.8,46.3
		c9.2,10.8,21.2,16.2,36.2,16.2c12.7,0,23.6-5.5,32.8-16.6c9.2-11,13.8-26.9,13.8-47.4c0-13.3-1.9-24.8-5.7-34.4s-9.2-17-16.3-22.3
		c-7-5.2-15.2-7.9-24.6-7.9c-9.6,0-18.2,2.6-25.7,7.9c-7.5,5.2-13.4,12.8-17.8,22.8C1435,280.6,1432.8,292.4,1432.8,306.1z"/>
</g>
</svg>
